<svg width="29" height="45" viewBox="0 0 29 45" fill="none" xmlns="http://www.w3.org/2000/svg">
<path fill-rule="evenodd" clip-rule="evenodd" d="M15.05 29.0396C22.8033 28.7504 29 22.3738 29 14.5498C29 6.54168 22.5081 0.0498047 14.5 0.0498047C6.49187 0.0498047 0 6.54168 0 14.5498C0 22.0686 5.72268 28.2507 13.05 28.9782V44C13.05 44.5523 13.4977 45 14.05 45C14.6023 45 15.05 44.5523 15.05 44V29.0396Z" fill="#07C88E"/>
<path fill-rule="evenodd" clip-rule="evenodd" d="M15.05 29.0396C22.8033 28.7504 29 22.3738 29 14.5498C29 6.54168 22.5081 0.0498047 14.5 0.0498047C6.49187 0.0498047 0 6.54168 0 14.5498C0 22.0686 5.72268 28.2507 13.05 28.9782V44C13.05 44.5523 13.4977 45 14.05 45C14.6023 45 15.05 44.5523 15.05 44V29.0396Z" fill="black" fill-opacity="0.16"/>
<circle cx="14.5" cy="14.5498" r="7.25" fill="white"/>
</svg>
