<svg width="64" height="64" viewBox="0 0 64 64" fill="none" xmlns="http://www.w3.org/2000/svg">
<g filter="url(#filter0_d_53_3832)">
<rect x="8" y="6" width="48" height="48" rx="8" fill="white"/>
<path fill-rule="evenodd" clip-rule="evenodd" d="M22.3263 20.6705C22.4521 20.4132 22.7136 20.25 23 20.25H41C41.2865 20.25 41.5479 20.4132 41.6737 20.6705C41.7996 20.9278 41.7679 21.2343 41.592 21.4605L34.75 30.2573V39C34.75 39.2599 34.6154 39.5013 34.3943 39.638C34.1732 39.7746 33.8971 39.7871 33.6646 39.6708L29.6646 37.6708C29.4105 37.5438 29.25 37.2841 29.25 37V30.2573L22.408 21.4605C22.2321 21.2343 22.2004 20.9278 22.3263 20.6705ZM24.5335 21.75L30.592 29.5395C30.6944 29.6712 30.75 29.8332 30.75 30V36.5365L33.25 37.7865V30C33.25 29.8332 33.3056 29.6712 33.408 29.5395L39.4665 21.75H24.5335Z" fill="#5780EA"/>
</g>
<defs>
<filter id="filter0_d_53_3832" x="0" y="0" width="64" height="64" filterUnits="userSpaceOnUse" color-interpolation-filters="sRGB">
<feFlood flood-opacity="0" result="BackgroundImageFix"/>
<feColorMatrix in="SourceAlpha" type="matrix" values="0 0 0 0 0 0 0 0 0 0 0 0 0 0 0 0 0 0 127 0" result="hardAlpha"/>
<feOffset dy="2"/>
<feGaussianBlur stdDeviation="4"/>
<feColorMatrix type="matrix" values="0 0 0 0 0.0823529 0 0 0 0 0.176471 0 0 0 0 0.403922 0 0 0 0.12 0"/>
<feBlend mode="normal" in2="BackgroundImageFix" result="effect1_dropShadow_53_3832"/>
<feBlend mode="normal" in="SourceGraphic" in2="effect1_dropShadow_53_3832" result="shape"/>
</filter>
</defs>
</svg>
